<?xml version="1.0" encoding="utf-8"?>
<!-- Generated by IcoMoon.io -->
<!DOCTYPE svg PUBLIC "-//W3C//DTD SVG 1.1//EN" "http://www.w3.org/Graphics/SVG/1.1/DTD/svg11.dtd">
<svg version="1.1" xmlns="http://www.w3.org/2000/svg" xmlns:xlink="http://www.w3.org/1999/xlink" width="32" height="64" viewBox="0 0 32 64">
<path d="M31.607 20.214q0.643 0.714 0.25 1.571l-19.286 41.321q-0.464 0.893-1.5 0.893-0.143 0-0.5-0.071-0.607-0.179-0.911-0.679t-0.161-1.071l7.036-28.857-14.5 3.607q-0.143 0.036-0.429 0.036-0.643 0-1.107-0.393-0.643-0.536-0.464-1.393l7.179-29.464q0.143-0.5 0.571-0.821t1-0.321h11.714q0.679 0 1.143 0.446t0.464 1.054q0 0.286-0.179 0.643l-6.107 16.536 14.143-3.5q0.286-0.071 0.429-0.071 0.679 0 1.214 0.536z"></path>
</svg>
