<?xml version="1.0" encoding="utf-8"?>
<!-- Generated by IcoMoon.io -->
<!DOCTYPE svg PUBLIC "-//W3C//DTD SVG 1.1//EN" "http://www.w3.org/Graphics/SVG/1.1/DTD/svg11.dtd">
<svg version="1.1" xmlns="http://www.w3.org/2000/svg" xmlns:xlink="http://www.w3.org/1999/xlink" width="69" height="64" viewBox="0 0 69 64">
<path d="M62.857 4.571q2.357 0 4.036 1.679t1.679 4.036v43.429q0 2.357-1.679 4.036t-4.036 1.679h-57.143q-2.357 0-4.036-1.679t-1.679-4.036v-43.429q0-2.357 1.679-4.036t4.036-1.679h57.143zM5.714 9.143q-0.464 0-0.804 0.339t-0.339 0.804v8h59.429v-8q0-0.464-0.339-0.804t-0.804-0.339h-57.143zM62.857 54.857q0.464 0 0.804-0.339t0.339-0.804v-21.714h-59.429v21.714q0 0.464 0.339 0.804t0.804 0.339h57.143zM9.143 50.286v-4.571h9.143v4.571h-9.143zM22.857 50.286v-4.571h13.714v4.571h-13.714z"></path>
</svg>
