<svg data-name="Слой 1" xmlns="http://www.w3.org/2000/svg" viewBox="0 0 636.41 454.76">
    <path d="M631.2 209.39v40c-.58 1.35-1.18 2.69-1.73 4-4.1 10-9.12 14.64-19.85 13.9a48.9 48.9 0 0 0-5.48.24v7.07c0 47 .05 94-.09 140.93a42.77 42.77 0 0 1-2 13.72C597 443.91 585.54 451 568.12 451H40.86c-9.73 0-19-1.76-25.45-9.25-4.32-5-6.87-11.55-10.21-17.4v-71a4.88 4.88 0 0 0 .8-1.22c4.35-17.22 19.2-25.69 37-25.64 106 .27 212-.05 318 .3 18.71.06 35.08-12.82 35-34-.08-41.83.21-83.66-.11-125.48-.15-19.93-12.82-33.6-32-33.73-37.14-.23-74.31-.05-111.43 1.12-13.53.43-27.08 4.86-36.1 15.85-5.67 6.91-9.35 15.62-13.15 23.88-5.11 11.1-11.18 21-22.17 27.41-8.33 4.85-17.23 4.41-26.2 4.45-10.63 0-10.63 0-9.77 10.69 0 .17-.06.4 0 .49 1 1 2.07 2.81 3 2.75 1.85-.13 3.59-1.46 5.46-2s4.23-1.59 5.41-.85c2.89 1.81 3.08 9.78.33 12.42-1 .93-3.39.8-5 .47a94.26 94.26 0 0 1-9.19-2.88v41.41c0 .74.61 2.13.87 2.12 4.13-.24 8.74.38 12.23-1.3 4-1.92 6-2.26 7 2.27a16.56 16.56 0 0 1-.09 7.34c-1 4.25-3.13 4.06-6.93 2.09-3.2-1.66-7.45-1.74-11.19-1.59-.83 0-1.49 4-2.24 6.16a8.92 8.92 0 0 1-.62 1.11h-11.69v-24.07a70.12 70.12 0 0 1-7.23 3.6c-1.37.48-3.37.9-4.42.25-3.23-2-3.36-11.07-.14-13.11 1.11-.7 3.28-.09 4.83.38a64.26 64.26 0 0 1 6.66 2.88v-50.6h-27.73a37.83 37.83 0 0 1-22.19-6.43 38.57 38.57 0 0 1-17.15-28c-1.79-13.7-5.09-27.33-5.46-41.05-.83-30.81-.41-61.65-.13-92.48a39.84 39.84 0 0 1 3.08-15.47c6.3-14.2 18.19-19.18 33.19-19.17q235.72.15 471.43.06c1.83 0 3.67 0 5.5.07 18 1 30.66 13.87 31.44 31.87.09 2.11 0 4.23 0 6.25 10.91 1.55 14.09 4.56 16.33 15a24.18 24.18 0 0 1 .66 4.94c.07 22 .5 44 0 66-.34 13.81-4 17.61-16.49 21.24v42.53c2.59 0 4.75.05 6.9 0 7.68-.21 13 3.31 16.33 10.13 1.17 2.44 2.25 5.03 3.37 7.58zM475 223.73v49c0 12.21 6.61 18.94 18.7 19q38.49.09 77 0c11.94 0 18.59-6.63 18.61-18.54q.08-49.49 0-99c0-11.7-6.54-18.42-18.17-18.47q-39-.17-78 0c-11.54.05-18.1 6.88-18.13 18.52-.01 16.49-.01 32.99-.01 49.49zM322.2 24.49H194.76c-8.11 0-11.18 3-11.37 11.09-.1 4 0 8 0 12 0 10.26 2.71 12.94 13.09 12.95q108.7 0 217.4.06c13.33 0 25.25-4.41 36-11.6 4.76-3.19 8.72-8.11 11.89-13 2.91-4.48.58-8.89-4.75-10.32a40.32 40.32 0 0 0-10.35-1.12q-62.25-.12-124.47-.06zm214.61 38.62c-10.66 0-21.33-.08-32 0-5.73.06-9.47 3.41-9.49 8.07s3.72 8.08 9.51 8.1q31.24.12 62.49 0c6 0 9.44-3 9.59-7.91.16-5.23-3.15-8.22-9.6-8.29-10.17-.08-20.31.03-30.5.03zm-.34-28.73c-10.33 0-20.66-.06-31 0-6.36 0-10.1 3.07-10.17 7.95s4.05 8.2 10.36 8.31c3.16.05 6.33 0 9.5 0 17.49 0 35 .06 52.48-.05 6.89 0 10.59-4.74 8.8-10.62-1.37-4.51-4.93-5.55-9-5.58-10.31-.05-20.63-.01-30.96-.01z"/>
</svg>