<svg data-name="Слой 1" xmlns="http://www.w3.org/2000/svg" viewBox="0 0 59.84 63.95">
    <path d="M34.77 62.9V38.81H25.1V62.9H8.61a2.48 2.48 0 0 1-2.81-2.78V39.18a2.47 2.47 0 0 1 2.74-2.78h42.63c2 0 2.86.92 2.86 2.91Q54 49.65 54 60c0 2-.91 2.9-2.87 2.9H34.77zM34.77 24.66h-9.68v8.89c0 .53-.1.74-.7.73H3.81c-1.9 0-2.81-.92-2.81-2.81 0-2.06.07-4.13 0-6.18-.1-2.29 1.28-3.08 3-3.07h52c1.49 0 2.41.59 2.73 1.78a3.54 3.54 0 0 1 .09.91v6.67a2.41 2.41 0 0 1-2.64 2.68H35.3c-.5 0-.56-.2-.56-.62v-8.21c.03-.21.03-.43.03-.77zM25.54 13.82c-1.21-.89-2.44-1.82-3.71-2.71S19.33 9.35 18 8.55a2.89 2.89 0 0 0-3.92.45 8.07 8.07 0 0 0-.59.62 3.08 3.08 0 0 0-.33 4.09 13 13 0 0 0 4.29 3.94c1.2.76 2.48 1.41 3.73 2.1l.66.35c-.33 0-.5.05-.67 0a31.32 31.32 0 0 1-5.42-.23A13.87 13.87 0 0 1 8 15.5a6.74 6.74 0 0 1-1-8.36 15.26 15.26 0 0 1 4.09-4.9C12.6 1.1 14.21.59 15.92 1.6a7.26 7.26 0 0 1 1.83 1.68c2.62 3.21 5.21 6.45 7.8 9.67l.41.5c1.48-.68 6.63-.68 7.88 0 .15-.17.31-.34.46-.53l7.9-9.8a4.91 4.91 0 0 1 2.79-2 3.63 3.63 0 0 1 2.82.51 13.29 13.29 0 0 1 5.7 7.4c.8 2.73-.2 5-2.16 6.92a15.53 15.53 0 0 1-7.51 4 13.36 13.36 0 0 1-2.68.14 22.93 22.93 0 0 1-3-.11l.54-.29a26.65 26.65 0 0 0 6.58-4.31 6 6 0 0 0 1.85-2.69 3 3 0 0 0 .09-1.61 4.28 4.28 0 0 0-3.09-2.98 2.78 2.78 0 0 0-2 .3c-2.69 1.73-5.3 3.57-7.92 5.36.77 1.56.5 3.07.41 4.53a2.1 2.1 0 0 1-2 1.82c-1.79 0-3.59.05-5.39 0a2.19 2.19 0 0 1-2.06-2 29.32 29.32 0 0 1 0-3.06 5.51 5.51 0 0 1 .37-1.23z"/>
</svg>