<?xml version="1.0" encoding="utf-8"?>
<!-- Generated by IcoMoon.io -->
<!DOCTYPE svg PUBLIC "-//W3C//DTD SVG 1.1//EN" "http://www.w3.org/Graphics/SVG/1.1/DTD/svg11.dtd">
<svg version="1.1" xmlns="http://www.w3.org/2000/svg" xmlns:xlink="http://www.w3.org/1999/xlink" width="64" height="64" viewBox="0 0 64 64">
<path d="M32 59.429q-0.929 0-1.571-0.643l-22.286-21.5q-0.357-0.286-0.982-0.929t-1.982-2.339-2.429-3.482-1.911-4.321-0.839-4.929q0-7.857 4.536-12.286t12.536-4.429q2.214 0 4.518 0.768t4.286 2.071 3.411 2.446 2.714 2.429q1.286-1.286 2.714-2.429t3.411-2.446 4.286-2.071 4.518-0.768q8 0 12.536 4.429t4.536 12.286q0 7.893-8.179 16.071l-22.25 21.429q-0.643 0.643-1.571 0.643z"></path>
</svg>
