<svg data-name="Слой 1" xmlns="http://www.w3.org/2000/svg" viewBox="0 0 510 510"><path d="M507.2 255.13c-.2 139.6-113.34 252.56-252.57 252.07C115 506.72 2.62 394.1 2.79 254.88 3 115.29 116.23 2.25 255.38 2.8c139.67.55 251.99 113.09 251.82 252.33zm-277.74 56.18c-1.42-1.33-2.65-2.4-3.8-3.55L179 261.14c-7.19-7.14-14.78-7.2-21.93-.23q-8.95 8.72-17.63 17.7c-6.56 6.8-6.67 14.61-.11 21.21q39 39.14 78.11 78.09c12.68 12.53 26.46 10.91 36.49-3.8q15.33-22.49 30.56-45.06Q335.22 254.23 386 179.41c6.58-9.7 5.25-16.75-4.31-23.29-5.64-3.85-11.3-7.67-16.95-11.5-11.33-7.68-17.82-6.47-25.43 4.75L252.1 277.94z"/></svg>