<svg data-name="Слой 1" xmlns="http://www.w3.org/2000/svg" viewBox="0 0 228.52 163.28">
    <path d="M223.81 75.35v14l-.61 1.4c-1.43 3.5-3.19 5.12-6.95 4.87a17.12 17.12 0 0 0-1.92.08v51.8a15 15 0 0 1-.7 4.8c-1.77 5.13-5.78 7.61-11.88 7.61H17.19c-3.41 0-6.65-.62-8.91-3.24-1.51-1.75-2.4-4-3.57-6.09v-24.84a1.71 1.71 0 0 0 .28-.43c1.52-6 6.72-9 13-9 37.1.09 74.2 0 111.3.1 6.55 0 12.28-4.49 12.25-11.9 0-14.64.07-29.28 0-43.92-.05-7-4.49-11.76-11.2-11.81-13-.08-26 0-39 .39-4.74.15-9.48 1.7-12.64 5.55-2 2.42-3.27 5.47-4.6 8.36-1.79 3.89-3.91 7.35-7.76 9.59-2.92 1.7-6 1.54-9.17 1.56-3.72 0-3.72 0-3.42 3.74v.17c.35.35.72 1 1 1a10.45 10.45 0 0 0 1.91-.7c.65-.19 1.48-.56 1.89-.3 1 .63 1.08 3.42.12 4.35a2.32 2.32 0 0 1-1.75.16 33 33 0 0 1-3.22-1v14.49c0 .26.21.75.3.74 1.45-.08 3.06.13 4.28-.45 1.4-.67 2.1-.79 2.45.79a5.8 5.8 0 0 1 0 2.57c-.35 1.49-1.1 1.42-2.43.73a8.1 8.1 0 0 0-3.92-.56c-.29 0-.52 1.4-.78 2.16a3.12 3.12 0 0 1-.22.39h-4.14v-8.42a24.54 24.54 0 0 1-2.53 1.26 2.12 2.12 0 0 1-1.55.09c-1.13-.7-1.18-3.87 0-4.59.39-.24 1.15 0 1.69.13a22.49 22.49 0 0 1 2.33 1v-17.7h-9.75A13.24 13.24 0 0 1 31.66 72a13.5 13.5 0 0 1-6-9.8c-.63-4.79-1.78-9.57-1.91-14.37-.29-10.78-.14-21.58 0-32.37a13.94 13.94 0 0 1 1.08-5.41c2.21-5 6.37-6.71 11.62-6.71q82.5.05 165 0h1.93a11.25 11.25 0 0 1 11 11.15v2.19c3.82.54 4.93 1.6 5.72 5.25a8.46 8.46 0 0 1 .23 1.73c0 7.7.18 15.4 0 23.1-.12 4.83-1.4 6.16-5.77 7.43v14.96h2.42a5.75 5.75 0 0 1 5.72 3.55c.41.85.79 1.76 1.18 2.65zm-54.67 5v17.17c0 4.27 2.31 6.63 6.55 6.65h27c4.18 0 6.51-2.32 6.51-6.49V63.03c0-4.09-2.29-6.45-6.36-6.46q-13.65-.06-27.3 0c-4 0-6.34 2.41-6.35 6.48v17.32zm-53.48-69.71h-44.6c-2.84 0-3.91 1.05-4 3.88v4.2c0 3.59.95 4.53 4.58 4.53h76.09a22.36 22.36 0 0 0 12.6-4.06 15.76 15.76 0 0 0 4.16-4.55c1-1.57.2-3.11-1.66-3.61a14.11 14.11 0 0 0-3.62-.39q-21.77-.03-43.55 0zm75.11 13.52h-11.2c-2 0-3.31 1.19-3.32 2.82s1.3 2.83 3.33 2.83h21.87c2.1 0 3.3-1.05 3.36-2.77s-1.1-2.88-3.36-2.9h-10.67zm-.12-10.06H179.8c-2.23 0-3.54 1.07-3.56 2.78s1.42 2.87 3.63 2.91h21.69c2.41 0 3.71-1.66 3.08-3.72-.48-1.58-1.73-1.94-3.15-2h-10.84z"/>
</svg>