<svg data-name="Слой 1" xmlns="http://www.w3.org/2000/svg" viewBox="0 0 994.08 990.24">
    <path d="M572.86 180v166.25h47.54V180h71.53v166.26h47.53v-166.5h21.62c12.06-.08 24 1.07 35.49 4.76 44.15 14.15 72 43.78 82.9 88.83a119.89 119.89 0 0 1 2.85 27.85q.24 283.11.21 566.21c0 34.48-20.76 60.91-48.72 70.47a78.18 78.18 0 0 1-25.42 3.83H763.5v23.36H644.3V942h-381v23.11H144.37V941.7h-4.72c-16.37-.15-32.78.37-49.09-.61-30.71-1.83-57.11-25.09-63.46-55.22A88.62 88.62 0 0 1 25.38 868q-.22-57.56-.06-115.12C25.44 701.36 54.07 659 101.76 640a108.73 108.73 0 0 1 40.59-7.78h381c13.15 0 22.85-7.44 25.27-19.46a30.46 30.46 0 0 0 .4-6V466.89c0-15.36-10-25.23-25.36-25.23h-305.6c-29.76 0-51.91-13.25-66.09-39.44a62.41 62.41 0 0 1-7.53-29.86c-.06-27.12-.69-54.27.46-81.35 1.35-31.89 14.89-58.71 38.45-80.2 22.62-20.64 49.48-30.87 80.11-31 22.75-.1 45.5 0 68.25 0 .85 0 1.7.1 3 .18v166.23h47.81V180h71.12v166.2h47.85V180zM968.82 334.32h-23.68v-4.43c-.08-15.23.46-30.47-2.09-45.62q-10-59.1-54.66-98.89a161.88 161.88 0 0 0-59.07-33.62c-2.12-.68-3.31-1.41-3.3-4 .1-32 .06-64 .07-96 0-.85.12-1.7.21-3h47.56V25.17h47.44v23.46h47.53zM323.28 48.71V25.16h47.44V48.7h47.46v94.94H275.8V48.71zM453.89 143.62V48.76h47.37V25.18h47.57v23.47h47.47v95zM736.67 25.17v23.3h47.4v95.16H641.68v-95h47.45V25.17zM921.7 533.86h47.12V724H921.7z"/><path d="M275.75 462.71h47.69v95H347V605h-94.73v-47.21h23.49z"/>
</svg>