<svg id="Слой_1" data-name="Слой 1" xmlns="http://www.w3.org/2000/svg" viewBox="0 0 254.98 255.04">
    <title>searchicon</title>
    <path d="M156.78,172.49a94.73,94.73,0,1,1-.18-148.92C177.12,39.77,189.18,61,192.27,87s-3.89,49.32-19.75,70.12c.13.15.27.33.44.49,2.48,2.48,5,5,7.43,7.45a.82.82,0,0,0,1.15.18,17.48,17.48,0,0,1,20.21,3.33q14.74,14.62,29.46,29.27,7.41,7.36,14.83,14.7a17.63,17.63,0,0,1,5.46,11,16.87,16.87,0,0,1-4.39,13.75c-3.16,3.41-6.42,6.74-9.86,9.86a17.59,17.59,0,0,1-24.41-.73q-18.5-18.58-37-37.21c-2.45-2.47-4.92-4.92-7.35-7.41a17.85,17.85,0,0,1-5.28-13.38,17.14,17.14,0,0,1,1.69-6.9,1,1,0,0,0-.09-.87C162.18,177.89,159.49,175.21,156.78,172.49Zm18.71-74.22A77.31,77.31,0,1,0,98,175.52,77.36,77.36,0,0,0,175.49,98.27Z"/><path d="M46.22,75.93c-.28,20.72,6.5,38.44,21.54,52.58s33.18,19.75,53.63,18.28c-1.9,2.43-13.63,7.39-20.06,8.6a53.41,53.41,0,0,1-22-.35,51.49,51.49,0,0,1-19.89-9.25A52.88,52.88,0,0,1,46.22,75.93Z"/>
</svg>