<svg data-name="Слой 1" xmlns="http://www.w3.org/2000/svg" viewBox="0 0 304.85 213.15">
    <path d="M6.82 201.26v-62.11c2.36-5.63 6.8-7.1 12.57-7 13.95.23 27.9.07 41.86.07h3c0-2.51-.11-4.72 0-6.91.12-1.81-.23-3-2.55-2.86v-2.63c0-6.29-.1-12.58.05-18.86.06-2.28-.72-2.84-2.88-2.79-6.13.13-12.27.09-18.4 0-5.8-.05-9.69-3.67-9.71-9.4q-.13-31.28 0-62.56c0-5.49 3.64-9 9.11-9.25h204.47C249 17 249 17 249 12.38s0-4.46-4.26-4.82c-.13 0-.25-.15-.46-.28V4.77h15.45v2.69c-4.66.53-4.66.53-4.65 5.16 0 .77.07 1.54 0 2.3-.16 1.66.63 2.15 2.17 2.07 1.76-.09 3.53 0 5.29 0 7.4 0 10.92 3.43 10.92 10.81v169.51a16.46 16.46 0 0 1-.75 5.2c-1.39 4.1-4.58 5.84-10.12 5.84q-122 0-244 .07c-5.67-.03-9.68-1.78-11.77-7.16zm60.42-69H170.61c5.64-.43 9.16-4.09 9.19-9.74.06-10.27.22-20.56-.09-30.82a25.6 25.6 0 0 0-2.46-10.36c-4.07-8.17-11.19-11.87-20.21-11.9h-44.86c-.74 0-1.47.06-2.37.1 0 6.31.07 12.36 0 18.41-.1 6.72-3.82 10.33-10.51 10.35H70v13.34h8.55l-.12 2.3h-8.69v8.57l-.7-.37c-.6.66-1.66 1.28-1.72 2-.21 2.48-.08 5.08-.08 8.08zm189.66-51h-42.34c-1.43 0-1.63.71-1.62 1.85 0 4.14.1 8.28 0 12.41-.07 2 .55 2.63 2.59 2.61 13-.08 26 0 39.07-.05.74 0 1.49-.09 2.34-.14zm-36.23-16.97a5.38 5.38 0 1 0-5.72 5.06 5.52 5.52 0 0 0 5.72-5.06zm11.59-5.63a5.48 5.48 0 0 0-5.39 5.4 5.4 5.4 0 0 0 10.8 0 5.5 5.5 0 0 0-5.41-5.39zm17.12-22.76a5.34 5.34 0 1 0 5.18 5.5 5.25 5.25 0 0 0-5.18-5.5zm-34.09 0a5.42 5.42 0 0 0-5.38 5.39 5.5 5.5 0 0 0 5.27 5.29 5.63 5.63 0 0 0 5.55-5.29 5.56 5.56 0 0 0-5.44-5.38zm16.93 0a5.35 5.35 0 1 0 5.44 5.34 5.44 5.44 0 0 0-5.44-5.34zM254.56 64a5.29 5.29 0 1 0-5.41 5.3 5.17 5.17 0 0 0 5.41-5.3zM298 82.41c-.57 1.06-.91 2.4-1.77 3.13-1.69 1.43-3.54 3.18-5.56 3.58-3 .6-6.22.16-9.5.16V48.19c8.75-2.14 13.49-.27 16.84 6.62z"/>
</svg>