<?xml version="1.0" encoding="utf-8"?>
<!-- Generated by IcoMoon.io -->
<!DOCTYPE svg PUBLIC "-//W3C//DTD SVG 1.1//EN" "http://www.w3.org/Graphics/SVG/1.1/DTD/svg11.dtd">
<svg version="1.1" xmlns="http://www.w3.org/2000/svg" xmlns:xlink="http://www.w3.org/1999/xlink" width="64" height="64" viewBox="0 0 64 64">
<path d="M42.286 32q0 0.929-0.679 1.607l-19.429 19.429q-0.679 0.679-1.607 0.679t-1.607-0.679-0.679-1.607v-10.286h-16q-0.929 0-1.607-0.679t-0.679-1.607v-13.714q0-0.929 0.679-1.607t1.607-0.679h16v-10.286q0-0.929 0.679-1.607t1.607-0.679 1.607 0.679l19.429 19.429q0.679 0.679 0.679 1.607zM54.857 19.429v25.143q0 4.25-3.018 7.268t-7.268 3.018h-11.429q-0.464 0-0.804-0.339t-0.339-0.804q0-0.143-0.036-0.714t-0.018-0.946 0.107-0.839 0.357-0.696 0.732-0.232h11.429q2.357 0 4.036-1.679t1.679-4.036v-25.143q0-2.357-1.679-4.036t-4.036-1.679h-11.143t-0.411-0.036-0.411-0.107-0.286-0.196-0.25-0.321-0.071-0.482q0-0.143-0.036-0.714t-0.018-0.946 0.107-0.839 0.357-0.696 0.732-0.232h11.429q4.25 0 7.268 3.018t3.018 7.268z"></path>
</svg>
