<svg xmlns="http://www.w3.org/2000/svg">
    <symbol id="signin" viewbox="0 0 64 64">
        <path d="M42.286 32q0 0.929-0.679 1.607l-19.429 19.429q-0.679 0.679-1.607 0.679t-1.607-0.679-0.679-1.607v-10.286h-16q-0.929 0-1.607-0.679t-0.679-1.607v-13.714q0-0.929 0.679-1.607t1.607-0.679h16v-10.286q0-0.929 0.679-1.607t1.607-0.679 1.607 0.679l19.429 19.429q0.679 0.679 0.679 1.607zM54.857 19.429v25.143q0 4.25-3.018 7.268t-7.268 3.018h-11.429q-0.464 0-0.804-0.339t-0.339-0.804q0-0.143-0.036-0.714t-0.018-0.946 0.107-0.839 0.357-0.696 0.732-0.232h11.429q2.357 0 4.036-1.679t1.679-4.036v-25.143q0-2.357-1.679-4.036t-4.036-1.679h-11.143t-0.411-0.036-0.411-0.107-0.286-0.196-0.25-0.321-0.071-0.482q0-0.143-0.036-0.714t-0.018-0.946 0.107-0.839 0.357-0.696 0.732-0.232h11.429q4.25 0 7.268 3.018t3.018 7.268z"></path>
    </symbol>
    <symbol id="accessories" viewBox="0 0 448 512">
        <path d="M444.485 422.426c4.689 4.689 4.684 12.287 0 16.971-32.804 32.804-85.991 32.804-118.795 0L210.176 323.883l-24.859 24.859C189.63 359.657 192 371.552 192 384c0 53.019-42.981 96-96 96S0 437.019 0 384s42.981-96 96-96c4.536 0 8.995.322 13.363.93l32.93-32.93-32.93-32.93c-4.368.608-8.827.93-13.363.93-53.019 0-96-42.981-96-96s42.981-96 96-96 96 42.981 96 96c0 12.448-2.37 24.343-6.682 35.258l24.859 24.859L325.69 72.603c32.804-32.804 85.991-32.804 118.795 0 4.684 4.684 4.689 12.282 0 16.971L278.059 256l166.426 166.426zM96 96c-17.645 0-32 14.355-32 32s14.355 32 32 32 32-14.355 32-32-14.355-32-32-32m0 256c-17.645 0-32 14.355-32 32s14.355 32 32 32 32-14.355 32-32-14.355-32-32-32m112-108c-6.627 0-12 5.373-12 12s5.373 12 12 12 12-5.373 12-12-5.373-12-12-12z"/>
    </symbol>
    <symbol id="asidenavicon3" viewbox="0 0 512 512">
        <path d="M10.8 247.2C-.7 251.8-3.7 266.7 5 275.4l54.8 54.8 73.2-24.4-24.4 73.2 128 128c8.8 8.8 23.6 5.7 28.2-5.8l98.1-243.7-108.4-108.4-243.7 98.1zM507.3 27.3L484.7 4.7c-6.2-6.3-16.4-6.3-22.6 0L359.8 106.9l-40.4-40.4c-4.2-4.3-11.4-3-13.9 2.5l-27.2 58.6 106.1 106.1 58.6-27.2c5.4-2.5 6.7-9.7 2.5-13.9l-40.4-40.4L507.3 49.9c6.3-6.2 6.3-16.3 0-22.6z"/>
    </symbol>
    <symbol id="lighting" viewbox="0 0 32 64">
        <path d="M31.607 20.214q0.643 0.714 0.25 1.571l-19.286 41.321q-0.464 0.893-1.5 0.893-0.143 0-0.5-0.071-0.607-0.179-0.911-0.679t-0.161-1.071l7.036-28.857-14.5 3.607q-0.143 0.036-0.429 0.036-0.643 0-1.107-0.393-0.643-0.536-0.464-1.393l7.179-29.464q0.143-0.5 0.571-0.821t1-0.321h11.714q0.679 0 1.143 0.446t0.464 1.054q0 0.286-0.179 0.643l-6.107 16.536 14.143-3.5q0.286-0.071 0.429-0.071 0.679 0 1.214 0.536z"></path>
    </symbol>
    <symbol id="compare" viewbox="0 0 51 43.9">
        <path d="M33.2 24.5L23 14.3 33.2 4v8H51v5H33.2v7.7zM17.8 27v-7.6L28 29.6 17.8 39.8V32H0v-5z"/>
    </symbol>
    <symbol id="sellingcard" viewbox="0 0 69 64">
        <path d="M62.857 4.571q2.357 0 4.036 1.679t1.679 4.036v43.429q0 2.357-1.679 4.036t-4.036 1.679h-57.143q-2.357 0-4.036-1.679t-1.679-4.036v-43.429q0-2.357 1.679-4.036t4.036-1.679h57.143zM5.714 9.143q-0.464 0-0.804 0.339t-0.339 0.804v8h59.429v-8q0-0.464-0.339-0.804t-0.804-0.339h-57.143zM62.857 54.857q0.464 0 0.804-0.339t0.339-0.804v-21.714h-59.429v21.714q0 0.464 0.339 0.804t0.804 0.339h57.143zM9.143 50.286v-4.571h9.143v4.571h-9.143zM22.857 50.286v-4.571h13.714v4.571h-13.714z"></path>
    </symbol>
    <symbol id="facebook" viewblox="0 0 37 64">
        <path d="M34.25 0.429v9.429h-5.607q-3.071 0-4.143 1.286t-1.071 3.857v6.75h10.464l-1.393 10.571h-9.071v27.107h-10.929v-27.107h-9.107v-10.571h9.107v-7.786q0-6.643 3.714-10.304t9.893-3.661q5.25 0 8.143 0.429z"></path>
    </symbol>
    <symbol id="logo" viewBox="0 0 636.41 454.76">
        <path d="M631.2 209.39v40c-.58 1.35-1.18 2.69-1.73 4-4.1 10-9.12 14.64-19.85 13.9a48.9 48.9 0 0 0-5.48.24v7.07c0 47 .05 94-.09 140.93a42.77 42.77 0 0 1-2 13.72C597 443.91 585.54 451 568.12 451H40.86c-9.73 0-19-1.76-25.45-9.25-4.32-5-6.87-11.55-10.21-17.4v-71a4.88 4.88 0 0 0 .8-1.22c4.35-17.22 19.2-25.69 37-25.64 106 .27 212-.05 318 .3 18.71.06 35.08-12.82 35-34-.08-41.83.21-83.66-.11-125.48-.15-19.93-12.82-33.6-32-33.73-37.14-.23-74.31-.05-111.43 1.12-13.53.43-27.08 4.86-36.1 15.85-5.67 6.91-9.35 15.62-13.15 23.88-5.11 11.1-11.18 21-22.17 27.41-8.33 4.85-17.23 4.41-26.2 4.45-10.63 0-10.63 0-9.77 10.69 0 .17-.06.4 0 .49 1 1 2.07 2.81 3 2.75 1.85-.13 3.59-1.46 5.46-2s4.23-1.59 5.41-.85c2.89 1.81 3.08 9.78.33 12.42-1 .93-3.39.8-5 .47a94.26 94.26 0 0 1-9.19-2.88v41.41c0 .74.61 2.13.87 2.12 4.13-.24 8.74.38 12.23-1.3 4-1.92 6-2.26 7 2.27a16.56 16.56 0 0 1-.09 7.34c-1 4.25-3.13 4.06-6.93 2.09-3.2-1.66-7.45-1.74-11.19-1.59-.83 0-1.49 4-2.24 6.16a8.92 8.92 0 0 1-.62 1.11h-11.69v-24.07a70.12 70.12 0 0 1-7.23 3.6c-1.37.48-3.37.9-4.42.25-3.23-2-3.36-11.07-.14-13.11 1.11-.7 3.28-.09 4.83.38a64.26 64.26 0 0 1 6.66 2.88v-50.6h-27.73a37.83 37.83 0 0 1-22.19-6.43 38.57 38.57 0 0 1-17.15-28c-1.79-13.7-5.09-27.33-5.46-41.05-.83-30.81-.41-61.65-.13-92.48a39.84 39.84 0 0 1 3.08-15.47c6.3-14.2 18.19-19.18 33.19-19.17q235.72.15 471.43.06c1.83 0 3.67 0 5.5.07 18 1 30.66 13.87 31.44 31.87.09 2.11 0 4.23 0 6.25 10.91 1.55 14.09 4.56 16.33 15a24.18 24.18 0 0 1 .66 4.94c.07 22 .5 44 0 66-.34 13.81-4 17.61-16.49 21.24v42.53c2.59 0 4.75.05 6.9 0 7.68-.21 13 3.31 16.33 10.13 1.17 2.44 2.25 5.03 3.37 7.58zM475 223.73v49c0 12.21 6.61 18.94 18.7 19q38.49.09 77 0c11.94 0 18.59-6.63 18.61-18.54q.08-49.49 0-99c0-11.7-6.54-18.42-18.17-18.47q-39-.17-78 0c-11.54.05-18.1 6.88-18.13 18.52-.01 16.49-.01 32.99-.01 49.49zM322.2 24.49H194.76c-8.11 0-11.18 3-11.37 11.09-.1 4 0 8 0 12 0 10.26 2.71 12.94 13.09 12.95q108.7 0 217.4.06c13.33 0 25.25-4.41 36-11.6 4.76-3.19 8.72-8.11 11.89-13 2.91-4.48.58-8.89-4.75-10.32a40.32 40.32 0 0 0-10.35-1.12q-62.25-.12-124.47-.06zm214.61 38.62c-10.66 0-21.33-.08-32 0-5.73.06-9.47 3.41-9.49 8.07s3.72 8.08 9.51 8.1q31.24.12 62.49 0c6 0 9.44-3 9.59-7.91.16-5.23-3.15-8.22-9.6-8.29-10.17-.08-20.31.03-30.5.03zm-.34-28.73c-10.33 0-20.66-.06-31 0-6.36 0-10.1 3.07-10.17 7.95s4.05 8.2 10.36 8.31c3.16.05 6.33 0 9.5 0 17.49 0 35 .06 52.48-.05 6.89 0 10.59-4.74 8.8-10.62-1.37-4.51-4.93-5.55-9-5.58-10.31-.05-20.63-.01-30.96-.01z"/>
    </symbol>
    <symbol id="gift" viewbox="0 0 59.84 63.95">
        <path d="M34.77 62.9V38.81H25.1V62.9H8.61a2.48 2.48 0 0 1-2.81-2.78V39.18a2.47 2.47 0 0 1 2.74-2.78h42.63c2 0 2.86.92 2.86 2.91Q54 49.65 54 60c0 2-.91 2.9-2.87 2.9H34.77zM34.77 24.66h-9.68v8.89c0 .53-.1.74-.7.73H3.81c-1.9 0-2.81-.92-2.81-2.81 0-2.06.07-4.13 0-6.18-.1-2.29 1.28-3.08 3-3.07h52c1.49 0 2.41.59 2.73 1.78a3.54 3.54 0 0 1 .09.91v6.67a2.41 2.41 0 0 1-2.64 2.68H35.3c-.5 0-.56-.2-.56-.62v-8.21c.03-.21.03-.43.03-.77zM25.54 13.82c-1.21-.89-2.44-1.82-3.71-2.71S19.33 9.35 18 8.55a2.89 2.89 0 0 0-3.92.45 8.07 8.07 0 0 0-.59.62 3.08 3.08 0 0 0-.33 4.09 13 13 0 0 0 4.29 3.94c1.2.76 2.48 1.41 3.73 2.1l.66.35c-.33 0-.5.05-.67 0a31.32 31.32 0 0 1-5.42-.23A13.87 13.87 0 0 1 8 15.5a6.74 6.74 0 0 1-1-8.36 15.26 15.26 0 0 1 4.09-4.9C12.6 1.1 14.21.59 15.92 1.6a7.26 7.26 0 0 1 1.83 1.68c2.62 3.21 5.21 6.45 7.8 9.67l.41.5c1.48-.68 6.63-.68 7.88 0 .15-.17.31-.34.46-.53l7.9-9.8a4.91 4.91 0 0 1 2.79-2 3.63 3.63 0 0 1 2.82.51 13.29 13.29 0 0 1 5.7 7.4c.8 2.73-.2 5-2.16 6.92a15.53 15.53 0 0 1-7.51 4 13.36 13.36 0 0 1-2.68.14 22.93 22.93 0 0 1-3-.11l.54-.29a26.65 26.65 0 0 0 6.58-4.31 6 6 0 0 0 1.85-2.69 3 3 0 0 0 .09-1.61 4.28 4.28 0 0 0-3.09-2.98 2.78 2.78 0 0 0-2 .3c-2.69 1.73-5.3 3.57-7.92 5.36.77 1.56.5 3.07.41 4.53a2.1 2.1 0 0 1-2 1.82c-1.79 0-3.59.05-5.39 0a2.19 2.19 0 0 1-2.06-2 29.32 29.32 0 0 1 0-3.06 5.51 5.51 0 0 1 .37-1.23z"/>
    </symbol>
    <symbol id="heart" viewbox="0 0 64 64">
        <path d="M32 59.429q-0.929 0-1.571-0.643l-22.286-21.5q-0.357-0.286-0.982-0.929t-1.982-2.339-2.429-3.482-1.911-4.321-0.839-4.929q0-7.857 4.536-12.286t12.536-4.429q2.214 0 4.518 0.768t4.286 2.071 3.411 2.446 2.714 2.429q1.286-1.286 2.714-2.429t3.411-2.446 4.286-2.071 4.518-0.768q8 0 12.536 4.429t4.536 12.286q0 7.893-8.179 16.071l-22.25 21.429q-0.643 0.643-1.571 0.643z"></path>
    </symbol>
    <symbol id="search" viewbox="0 0 254.98 255.04">
        <path d="M156.78,172.49a94.73,94.73,0,1,1-.18-148.92C177.12,39.77,189.18,61,192.27,87s-3.89,49.32-19.75,70.12c.13.15.27.33.44.49,2.48,2.48,5,5,7.43,7.45a.82.82,0,0,0,1.15.18,17.48,17.48,0,0,1,20.21,3.33q14.74,14.62,29.46,29.27,7.41,7.36,14.83,14.7a17.63,17.63,0,0,1,5.46,11,16.87,16.87,0,0,1-4.39,13.75c-3.16,3.41-6.42,6.74-9.86,9.86a17.59,17.59,0,0,1-24.41-.73q-18.5-18.58-37-37.21c-2.45-2.47-4.92-4.92-7.35-7.41a17.85,17.85,0,0,1-5.28-13.38,17.14,17.14,0,0,1,1.69-6.9,1,1,0,0,0-.09-.87C162.18,177.89,159.49,175.21,156.78,172.49Zm18.71-74.22A77.31,77.31,0,1,0,98,175.52,77.36,77.36,0,0,0,175.49,98.27Z"/><path d="M46.22,75.93c-.28,20.72,6.5,38.44,21.54,52.58s33.18,19.75,53.63,18.28c-1.9,2.43-13.63,7.39-20.06,8.6a53.41,53.41,0,0,1-22-.35,51.49,51.49,0,0,1-19.89-9.25A52.88,52.88,0,0,1,46.22,75.93Z"/>
    </symbol>
    <symbol id="shoppingcart" viewbox="0 0 59 64">
        <path d="M22.857 54.857q0 1.857-1.357 3.214t-3.214 1.357-3.214-1.357-1.357-3.214 1.357-3.214 3.214-1.357 3.214 1.357 1.357 3.214zM54.857 54.857q0 1.857-1.357 3.214t-3.214 1.357-3.214-1.357-1.357-3.214 1.357-3.214 3.214-1.357 3.214 1.357 1.357 3.214zM59.429 16v18.286q0 0.857-0.589 1.518t-1.446 0.768l-37.286 4.357q0.464 2.143 0.464 2.5 0 0.571-0.857 2.286h32.857q0.929 0 1.607 0.679t0.679 1.607-0.679 1.607-1.607 0.679h-36.571q-0.929 0-1.607-0.679t-0.679-1.607q0-0.393 0.286-1.125t0.571-1.286 0.768-1.429 0.554-1.054l-6.321-29.393h-7.286q-0.929 0-1.607-0.679t-0.679-1.607 0.679-1.607 1.607-0.679h9.143q0.571 0 1.018 0.232t0.696 0.554 0.464 0.875 0.286 0.929 0.196 1.054 0.161 0.929h42.893q0.929 0 1.607 0.679t0.679 1.607z"></path>
    </symbol>
    <symbol id="like" viewbox="0 0 64 64">
        <path d="M9.143 48q0-0.929-0.679-1.607t-1.607-0.679-1.607 0.679-0.679 1.607 0.679 1.607 1.607 0.679 1.607-0.679 0.679-1.607zM50.286 27.429q0-1.821-1.393-3.196t-3.179-1.375h-12.571q0-2.071 1.714-5.696t1.714-5.732q0-3.5-1.143-5.179t-4.571-1.679q-0.929 0.929-1.357 3.036t-1.089 4.482-2.125 3.911q-0.786 0.821-2.75 3.25-0.143 0.179-0.821 1.071t-1.125 1.464-1.232 1.518-1.429 1.571-1.375 1.268-1.429 0.964-1.268 0.321h-1.143v22.857h1.143q0.464 0 1.125 0.107t1.179 0.232 1.357 0.393 1.25 0.411 1.268 0.446 1.036 0.375q7.536 2.607 12.214 2.607h4.321q6.857 0 6.857-5.964 0-0.929-0.179-2 1.071-0.571 1.696-1.875t0.625-2.625-0.643-2.464q1.893-1.786 1.893-4.25 0-0.893-0.357-1.982t-0.893-1.696q1.143-0.036 1.911-1.679t0.768-2.893zM54.857 27.393q0 3.179-1.75 5.821 0.321 1.179 0.321 2.464 0 2.75-1.357 5.143 0.107 0.75 0.107 1.536 0 3.607-2.143 6.357 0.036 4.964-3.036 7.839t-8.107 2.875h-4.607q-3.429 0-6.768-0.804t-7.732-2.339q-4.143-1.429-4.929-1.429h-10.286q-1.893 0-3.232-1.339t-1.339-3.232v-22.857q0-1.893 1.339-3.232t3.232-1.339h9.786q1.286-0.857 4.893-5.536 2.071-2.679 3.821-4.571 0.857-0.893 1.268-3.054t1.089-4.518 2.214-3.857q1.393-1.321 3.214-1.321 3 0 5.393 1.161t3.643 3.625 1.25 6.643q0 3.321-1.714 6.857h6.286q3.714 0 6.429 2.714t2.714 6.393z"></path>
    </symbol>
    <symbol id="twitter" viewbox="0 0 64 64">
        <path d="M45.714 21.786q-2 0.893-4.321 1.214 2.429-1.429 3.321-4.179-2.321 1.357-4.786 1.821-2.179-2.357-5.464-2.357-3.107 0-5.304 2.196t-2.196 5.304q0 1.036 0.179 1.714-4.607-0.25-8.643-2.321t-6.857-5.536q-1.036 1.786-1.036 3.786 0 4.071 3.25 6.25-1.679-0.036-3.571-0.929v0.071q0 2.679 1.786 4.768t4.393 2.589q-1.036 0.286-1.821 0.286-0.464 0-1.393-0.143 0.75 2.25 2.661 3.714t4.339 1.5q-4.143 3.214-9.321 3.214-0.929 0-1.786-0.107 5.286 3.357 11.5 3.357 4 0 7.5-1.268t6-3.393 4.304-4.893 2.679-5.786 0.875-6.018q0-0.643-0.036-0.964 2.25-1.607 3.75-3.893zM54.857 14.857v34.286q0 4.25-3.018 7.268t-7.268 3.018h-34.286q-4.25 0-7.268-3.018t-3.018-7.268v-34.286q0-4.25 3.018-7.268t7.268-3.018h34.286q4.25 0 7.268 3.018t3.018 7.268z"></path>
    </symbol>
    <symbol id="vk" viewbox="0 0 64 64">
        <path d="M68.464 18.571q0.821 2.286-5.357 10.5-0.857 1.143-2.321 3.036-1.429 1.821-1.964 2.571t-1.089 1.768-0.429 1.5 0.464 1.232 1.161 1.536 2.036 1.893q0.143 0.071 0.179 0.143 5.036 4.679 6.821 7.893 0.107 0.179 0.232 0.446t0.25 0.946-0.018 1.214-0.893 0.982-2.107 0.446l-9.143 0.143q-0.857 0.179-2-0.179t-1.857-0.786l-0.714-0.429q-1.071-0.75-2.5-2.286t-2.446-2.768-2.179-2.071-2.018-0.554q-0.107 0.036-0.286 0.125t-0.607 0.518-0.768 1.054-0.607 1.857-0.232 2.768q0 0.536-0.125 0.982t-0.268 0.661l-0.143 0.179q-0.643 0.679-1.893 0.786h-4.107q-2.536 0.143-5.214-0.589t-4.696-1.893-3.679-2.357-2.518-2.054l-0.893-0.857q-0.357-0.357-0.982-1.071t-2.554-3.25-3.786-5.393-4.375-7.536-4.661-9.714q-0.214-0.571-0.214-0.964t0.107-0.571l0.143-0.214q0.536-0.679 2.036-0.679l9.786-0.071q0.429 0.071 0.821 0.232t0.571 0.304l0.179 0.107q0.571 0.393 0.857 1.143 0.714 1.786 1.643 3.696t1.464 2.911l0.571 1.036q1.036 2.143 2 3.714t1.732 2.446 1.482 1.375 1.214 0.5 0.964-0.179q0.071-0.036 0.179-0.179t0.429-0.786 0.482-1.679 0.339-2.893 0-4.464q-0.071-1.429-0.321-2.607t-0.5-1.643l-0.214-0.429q-0.893-1.214-3.036-1.536-0.464-0.071 0.179-0.857 0.571-0.679 1.357-1.071 1.893-0.929 8.536-0.857 2.929 0.036 4.821 0.464 0.714 0.179 1.196 0.482t0.732 0.857 0.375 1.143 0.125 1.625-0.036 1.964-0.089 2.518-0.054 2.946q0 0.393-0.036 1.5t-0.018 1.714 0.125 1.446 0.411 1.393 0.804 0.875q0.286 0.071 0.607 0.143t0.929-0.393 1.357-1.232 1.857-2.393 2.429-3.839q2.143-3.714 3.821-8.036 0.143-0.357 0.357-0.625t0.393-0.375l0.143-0.107 0.179-0.089t0.464-0.107 0.714-0.018l10.286-0.071q1.393-0.179 2.286 0.089t1.107 0.589z"></path>
    </symbol>
    <symbol id="phone" viewbox="0 0 50 64">
        <path d="M50.286 44.286q0 0.964-0.357 2.518t-0.75 2.446q-0.75 1.786-4.357 3.786-3.357 1.821-6.643 1.821-0.964 0-1.893-0.125t-2.054-0.446-1.679-0.518-1.982-0.732-1.75-0.643q-3.5-1.25-6.25-2.964-4.536-2.821-9.429-7.714t-7.714-9.429q-1.714-2.75-2.964-6.25-0.107-0.321-0.643-1.75t-0.732-1.982-0.518-1.679-0.446-2.054-0.125-1.893q0-3.286 1.821-6.643 2-3.607 3.786-4.357 0.893-0.393 2.446-0.75t2.518-0.357q0.5 0 0.75 0.107 0.643 0.214 1.893 2.714 0.393 0.679 1.071 1.929t1.25 2.268 1.107 1.911q0.107 0.143 0.625 0.893t0.768 1.268 0.25 1.018q0 0.714-1.018 1.786t-2.214 1.964-2.214 1.893-1.018 1.643q0 0.321 0.179 0.804t0.304 0.732 0.5 0.857 0.411 0.679q2.714 4.893 6.214 8.393t8.393 6.214q0.071 0.036 0.679 0.411t0.857 0.5 0.732 0.304 0.804 0.179q0.643 0 1.643-1.018t1.893-2.214 1.964-2.214 1.786-1.018q0.5 0 1.018 0.25t1.268 0.768 0.893 0.625q0.893 0.536 1.911 1.107t2.268 1.25 1.929 1.071q2.5 1.25 2.714 1.893 0.107 0.25 0.107 0.75z"></path>
    </symbol>
    <symbol id="email" viewbox="0 0 64 64">
        <path d="M64 25.357v28.357q0 2.357-1.679 4.036t-4.036 1.679h-52.571q-2.357 0-4.036-1.679t-1.679-4.036v-28.357q1.571 1.75 3.607 3.107 12.929 8.786 17.75 12.321 2.036 1.5 3.304 2.339t3.375 1.714 3.929 0.875h0.071q1.821 0 3.929-0.875t3.375-1.714 3.304-2.339q6.071-4.393 17.786-12.321 2.036-1.393 3.571-3.107zM64 14.857q0 2.821-1.75 5.393t-4.357 4.393q-13.429 9.321-16.714 11.607-0.357 0.25-1.518 1.089t-1.929 1.357-1.857 1.161-2.054 0.964-1.786 0.321h-0.071q-0.821 0-1.786-0.321t-2.054-0.964-1.857-1.161-1.929-1.357-1.518-1.089q-3.25-2.286-9.357-6.518t-7.321-5.089q-2.214-1.5-4.179-4.125t-1.964-4.875q0-2.786 1.482-4.643t4.232-1.857h52.571q2.321 0 4.018 1.679t1.696 4.036z"></path>
    </symbol>
    <symbol id="overlock" viewbox="0 0 994.08 990.24">
        <path d="M572.86 180v166.25h47.54V180h71.53v166.26h47.53v-166.5h21.62c12.06-.08 24 1.07 35.49 4.76 44.15 14.15 72 43.78 82.9 88.83a119.89 119.89 0 0 1 2.85 27.85q.24 283.11.21 566.21c0 34.48-20.76 60.91-48.72 70.47a78.18 78.18 0 0 1-25.42 3.83H763.5v23.36H644.3V942h-381v23.11H144.37V941.7h-4.72c-16.37-.15-32.78.37-49.09-.61-30.71-1.83-57.11-25.09-63.46-55.22A88.62 88.62 0 0 1 25.38 868q-.22-57.56-.06-115.12C25.44 701.36 54.07 659 101.76 640a108.73 108.73 0 0 1 40.59-7.78h381c13.15 0 22.85-7.44 25.27-19.46a30.46 30.46 0 0 0 .4-6V466.89c0-15.36-10-25.23-25.36-25.23h-305.6c-29.76 0-51.91-13.25-66.09-39.44a62.41 62.41 0 0 1-7.53-29.86c-.06-27.12-.69-54.27.46-81.35 1.35-31.89 14.89-58.71 38.45-80.2 22.62-20.64 49.48-30.87 80.11-31 22.75-.1 45.5 0 68.25 0 .85 0 1.7.1 3 .18v166.23h47.81V180h71.12v166.2h47.85V180zM968.82 334.32h-23.68v-4.43c-.08-15.23.46-30.47-2.09-45.62q-10-59.1-54.66-98.89a161.88 161.88 0 0 0-59.07-33.62c-2.12-.68-3.31-1.41-3.3-4 .1-32 .06-64 .07-96 0-.85.12-1.7.21-3h47.56V25.17h47.44v23.46h47.53zM323.28 48.71V25.16h47.44V48.7h47.46v94.94H275.8V48.71zM453.89 143.62V48.76h47.37V25.18h47.57v23.47h47.47v95zM736.67 25.17v23.3h47.4v95.16H641.68v-95h47.45V25.17zM921.7 533.86h47.12V724H921.7z"/><path d="M275.75 462.71h47.69v95H347V605h-94.73v-47.21h23.49z"/>
    </symbol>
    <symbol id="sewingmachine" viewbox="0 0 304.85 213.15">
        <path d="M6.82 201.26v-62.11c2.36-5.63 6.8-7.1 12.57-7 13.95.23 27.9.07 41.86.07h3c0-2.51-.11-4.72 0-6.91.12-1.81-.23-3-2.55-2.86v-2.63c0-6.29-.1-12.58.05-18.86.06-2.28-.72-2.84-2.88-2.79-6.13.13-12.27.09-18.4 0-5.8-.05-9.69-3.67-9.71-9.4q-.13-31.28 0-62.56c0-5.49 3.64-9 9.11-9.25h204.47C249 17 249 17 249 12.38s0-4.46-4.26-4.82c-.13 0-.25-.15-.46-.28V4.77h15.45v2.69c-4.66.53-4.66.53-4.65 5.16 0 .77.07 1.54 0 2.3-.16 1.66.63 2.15 2.17 2.07 1.76-.09 3.53 0 5.29 0 7.4 0 10.92 3.43 10.92 10.81v169.51a16.46 16.46 0 0 1-.75 5.2c-1.39 4.1-4.58 5.84-10.12 5.84q-122 0-244 .07c-5.67-.03-9.68-1.78-11.77-7.16zm60.42-69H170.61c5.64-.43 9.16-4.09 9.19-9.74.06-10.27.22-20.56-.09-30.82a25.6 25.6 0 0 0-2.46-10.36c-4.07-8.17-11.19-11.87-20.21-11.9h-44.86c-.74 0-1.47.06-2.37.1 0 6.31.07 12.36 0 18.41-.1 6.72-3.82 10.33-10.51 10.35H70v13.34h8.55l-.12 2.3h-8.69v8.57l-.7-.37c-.6.66-1.66 1.28-1.72 2-.21 2.48-.08 5.08-.08 8.08zm189.66-51h-42.34c-1.43 0-1.63.71-1.62 1.85 0 4.14.1 8.28 0 12.41-.07 2 .55 2.63 2.59 2.61 13-.08 26 0 39.07-.05.74 0 1.49-.09 2.34-.14zm-36.23-16.97a5.38 5.38 0 1 0-5.72 5.06 5.52 5.52 0 0 0 5.72-5.06zm11.59-5.63a5.48 5.48 0 0 0-5.39 5.4 5.4 5.4 0 0 0 10.8 0 5.5 5.5 0 0 0-5.41-5.39zm17.12-22.76a5.34 5.34 0 1 0 5.18 5.5 5.25 5.25 0 0 0-5.18-5.5zm-34.09 0a5.42 5.42 0 0 0-5.38 5.39 5.5 5.5 0 0 0 5.27 5.29 5.63 5.63 0 0 0 5.55-5.29 5.56 5.56 0 0 0-5.44-5.38zm16.93 0a5.35 5.35 0 1 0 5.44 5.34 5.44 5.44 0 0 0-5.44-5.34zM254.56 64a5.29 5.29 0 1 0-5.41 5.3 5.17 5.17 0 0 0 5.41-5.3zM298 82.41c-.57 1.06-.91 2.4-1.77 3.13-1.69 1.43-3.54 3.18-5.56 3.58-3 .6-6.22.16-9.5.16V48.19c8.75-2.14 13.49-.27 16.84 6.62z"/>
    </symbol>
    <symbol id="instock" viewBox="0 0 510 510">
        <path d="M507.2,255.13C507,394.73,393.86,507.69,254.63,507.2,115,506.72,2.62,394.1,2.79,254.88,3,115.29,116.23,2.25,255.38,2.8,395.05,3.35,507.37,115.89,507.2,255.13ZM229.46,311.31c-1.42-1.33-2.65-2.4-3.8-3.55Q202.33,284.45,179,261.14c-7.19-7.14-14.78-7.2-21.93-.23q-8.95,8.72-17.63,17.7c-6.56,6.8-6.67,14.61-.11,21.21q39,39.14,78.11,78.09c12.68,12.53,26.46,10.91,36.49-3.8q15.33-22.49,30.56-45.06Q335.22,254.23,386,179.41c6.58-9.7,5.25-16.75-4.31-23.29-5.64-3.85-11.3-7.67-16.95-11.5-11.33-7.68-17.82-6.47-25.43,4.75L252.1,277.94Z"/>
    </symbol>
    <symbol id="outofstock" viewBox="0 0 442.63 442.62">
        <path d="M221.13 434.55C103.69 434.31 7.51 337.86 8.08 220.88c.57-117.5 96.38-213 213.42-212.81 117.44.24 213.62 96.69 213.06 213.67-.56 117.5-96.39 213.04-213.43 212.81zm.67-184l74 74 29.68-29.72-74.23-74.19L325 147l-29.73-29.77-73.93 74.18-73.62-73.63-30.6 30.63 73.82 73.79-73.16 73.09 29.8 29.71z"/>
    </symbol>
</svg>