<?xml version="1.0" encoding="utf-8"?>
<!-- Generated by IcoMoon.io -->
<!DOCTYPE svg PUBLIC "-//W3C//DTD SVG 1.1//EN" "http://www.w3.org/Graphics/SVG/1.1/DTD/svg11.dtd">
<svg version="1.1" xmlns="http://www.w3.org/2000/svg" xmlns:xlink="http://www.w3.org/1999/xlink" width="64" height="64" viewBox="0 0 64 64">
<path d="M9.143 48q0-0.929-0.679-1.607t-1.607-0.679-1.607 0.679-0.679 1.607 0.679 1.607 1.607 0.679 1.607-0.679 0.679-1.607zM50.286 27.429q0-1.821-1.393-3.196t-3.179-1.375h-12.571q0-2.071 1.714-5.696t1.714-5.732q0-3.5-1.143-5.179t-4.571-1.679q-0.929 0.929-1.357 3.036t-1.089 4.482-2.125 3.911q-0.786 0.821-2.75 3.25-0.143 0.179-0.821 1.071t-1.125 1.464-1.232 1.518-1.429 1.571-1.375 1.268-1.429 0.964-1.268 0.321h-1.143v22.857h1.143q0.464 0 1.125 0.107t1.179 0.232 1.357 0.393 1.25 0.411 1.268 0.446 1.036 0.375q7.536 2.607 12.214 2.607h4.321q6.857 0 6.857-5.964 0-0.929-0.179-2 1.071-0.571 1.696-1.875t0.625-2.625-0.643-2.464q1.893-1.786 1.893-4.25 0-0.893-0.357-1.982t-0.893-1.696q1.143-0.036 1.911-1.679t0.768-2.893zM54.857 27.393q0 3.179-1.75 5.821 0.321 1.179 0.321 2.464 0 2.75-1.357 5.143 0.107 0.75 0.107 1.536 0 3.607-2.143 6.357 0.036 4.964-3.036 7.839t-8.107 2.875h-4.607q-3.429 0-6.768-0.804t-7.732-2.339q-4.143-1.429-4.929-1.429h-10.286q-1.893 0-3.232-1.339t-1.339-3.232v-22.857q0-1.893 1.339-3.232t3.232-1.339h9.786q1.286-0.857 4.893-5.536 2.071-2.679 3.821-4.571 0.857-0.893 1.268-3.054t1.089-4.518 2.214-3.857q1.393-1.321 3.214-1.321 3 0 5.393 1.161t3.643 3.625 1.25 6.643q0 3.321-1.714 6.857h6.286q3.714 0 6.429 2.714t2.714 6.393z"></path>
</svg>
