<?xml version="1.0" encoding="utf-8"?>
<!-- Generated by IcoMoon.io -->
<!DOCTYPE svg PUBLIC "-//W3C//DTD SVG 1.1//EN" "http://www.w3.org/Graphics/SVG/1.1/DTD/svg11.dtd">
<svg version="1.1" xmlns="http://www.w3.org/2000/svg" xmlns:xlink="http://www.w3.org/1999/xlink" width="64" height="64" viewBox="0 0 64 64">
<path d="M45.714 21.786q-2 0.893-4.321 1.214 2.429-1.429 3.321-4.179-2.321 1.357-4.786 1.821-2.179-2.357-5.464-2.357-3.107 0-5.304 2.196t-2.196 5.304q0 1.036 0.179 1.714-4.607-0.25-8.643-2.321t-6.857-5.536q-1.036 1.786-1.036 3.786 0 4.071 3.25 6.25-1.679-0.036-3.571-0.929v0.071q0 2.679 1.786 4.768t4.393 2.589q-1.036 0.286-1.821 0.286-0.464 0-1.393-0.143 0.75 2.25 2.661 3.714t4.339 1.5q-4.143 3.214-9.321 3.214-0.929 0-1.786-0.107 5.286 3.357 11.5 3.357 4 0 7.5-1.268t6-3.393 4.304-4.893 2.679-5.786 0.875-6.018q0-0.643-0.036-0.964 2.25-1.607 3.75-3.893zM54.857 14.857v34.286q0 4.25-3.018 7.268t-7.268 3.018h-34.286q-4.25 0-7.268-3.018t-3.018-7.268v-34.286q0-4.25 3.018-7.268t7.268-3.018h34.286q4.25 0 7.268 3.018t3.018 7.268z"></path>
</svg>
