<?xml version="1.0" encoding="utf-8"?>
<!-- Generated by IcoMoon.io -->
<!DOCTYPE svg PUBLIC "-//W3C//DTD SVG 1.1//EN" "http://www.w3.org/Graphics/SVG/1.1/DTD/svg11.dtd">
<svg version="1.1" xmlns="http://www.w3.org/2000/svg" xmlns:xlink="http://www.w3.org/1999/xlink" width="69" height="64" viewBox="0 0 69 64">
<path d="M68.464 18.571q0.821 2.286-5.357 10.5-0.857 1.143-2.321 3.036-1.429 1.821-1.964 2.571t-1.089 1.768-0.429 1.5 0.464 1.232 1.161 1.536 2.036 1.893q0.143 0.071 0.179 0.143 5.036 4.679 6.821 7.893 0.107 0.179 0.232 0.446t0.25 0.946-0.018 1.214-0.893 0.982-2.107 0.446l-9.143 0.143q-0.857 0.179-2-0.179t-1.857-0.786l-0.714-0.429q-1.071-0.75-2.5-2.286t-2.446-2.768-2.179-2.071-2.018-0.554q-0.107 0.036-0.286 0.125t-0.607 0.518-0.768 1.054-0.607 1.857-0.232 2.768q0 0.536-0.125 0.982t-0.268 0.661l-0.143 0.179q-0.643 0.679-1.893 0.786h-4.107q-2.536 0.143-5.214-0.589t-4.696-1.893-3.679-2.357-2.518-2.054l-0.893-0.857q-0.357-0.357-0.982-1.071t-2.554-3.25-3.786-5.393-4.375-7.536-4.661-9.714q-0.214-0.571-0.214-0.964t0.107-0.571l0.143-0.214q0.536-0.679 2.036-0.679l9.786-0.071q0.429 0.071 0.821 0.232t0.571 0.304l0.179 0.107q0.571 0.393 0.857 1.143 0.714 1.786 1.643 3.696t1.464 2.911l0.571 1.036q1.036 2.143 2 3.714t1.732 2.446 1.482 1.375 1.214 0.5 0.964-0.179q0.071-0.036 0.179-0.179t0.429-0.786 0.482-1.679 0.339-2.893 0-4.464q-0.071-1.429-0.321-2.607t-0.5-1.643l-0.214-0.429q-0.893-1.214-3.036-1.536-0.464-0.071 0.179-0.857 0.571-0.679 1.357-1.071 1.893-0.929 8.536-0.857 2.929 0.036 4.821 0.464 0.714 0.179 1.196 0.482t0.732 0.857 0.375 1.143 0.125 1.625-0.036 1.964-0.089 2.518-0.054 2.946q0 0.393-0.036 1.5t-0.018 1.714 0.125 1.446 0.411 1.393 0.804 0.875q0.286 0.071 0.607 0.143t0.929-0.393 1.357-1.232 1.857-2.393 2.429-3.839q2.143-3.714 3.821-8.036 0.143-0.357 0.357-0.625t0.393-0.375l0.143-0.107 0.179-0.089t0.464-0.107 0.714-0.018l10.286-0.071q1.393-0.179 2.286 0.089t1.107 0.589z"></path>
</svg>
